<svg version="1.2" xmlns="http://www.w3.org/2000/svg" viewBox="0 0 500 500" width="500" height="500">
	<title>Favicon</title>
	<style>
		.s0 { fill: #4a3f35 }
		.s1 { fill: #c1121f }
		@media (prefers-color-scheme: dark) {
			.s0 { fill: #d9d9d9 }
			.s1 { fill: #d90429 }
		}
	</style>
	<g id="Layer 1">
		<path id="L" class="s0" aria-label="L"  d="m67.3 385.8q-4.6-0.1-7.4-1.1-2.4-1.4-2.4-3.1 0-3.2 3.1-4.2 3.5-1.5 4.6-1.8 13.6-2.8 21-8 7.3-5.7 7.3-17.2v-162.4q0-8.4-1.7-12.3-1.8-4.1-6.4-5.9-4.5-2.1-13.2-3.5-11.6-2.1-11.6-7 0-2.1 2.8-2.8 2.8-1 7.4-1 9.4 0 15 0.3 6 0.4 11.2 0.7 5.3 0 12.9 0 8.8 0 15.1 0 6.3-0.3 12.9-0.7 6.7-0.3 16.2-0.3 4.5 0 7.3 1 2.8 0.7 2.8 2.8 0 2.4-2.8 4.2-2.8 1.7-8.8 2.8-12.9 2.4-22 5.9-9.1 3.2-9.1 13.4v164.8q0 10.8 4.9 16.1 4.9 5.2 22 5.2h43.4q9.5 0 16.5-2.8 7.3-3.1 10.8-6.3 7-5.9 10.2-10.5 3.5-4.9 8-14.3 0.7-2.1 2.8-6.3 2.5-4.2 4.9-4.2 2.1 0 3.2 2.1 1.1 2.1 1.1 4.2 0 0.3-0.4 1 0 0.4 0 0.8-2.5 9-4.6 16.4-1.7 7.3-3.1 14-1.1 6.6-1.8 14-0.3 2.4-1.4 4.2-0.7 1.7-3.5 1.7-17.5 0-33.6-0.3-16.1-0.4-31.1-0.4-14.7-0.3-28.4-0.6-13.6-0.4-26.9-0.4-8.7 0-19.9 0.4-10.9 0.3-19.3 1-8 0.3-8 0.3z"/>
		<path id="&amp;" class="s1" aria-label="&amp;"  d="m218.6 247.4l-5.2-5.9c-4.2-5.3-20-23.5-20-42 0-12.3 12.3-20.4 24.5-20.4 14.7 0 24.5 14.8 24.5 27.4 0 14.7-3.1 31.5-19.2 38.8zm-13.6 14.7l4.2 4.5c19.9 21.8 38.5 38.9 50 56.8l4.2 6.6-3.2 3.1c-17.1 18.3-32.9 28.4-58 28.4-21.4 0-40.3-16.1-40.3-37.4 0-20.7 3.2-46.6 35.7-59.2zm169.4-27.3c-8.4 0-23.1 5.2-33.6 5.2-5.3 0-22.8-1.7-24.9-1.7-1.4 0-7.7 0.3-7.7 3.8 0 1.1 3.2 3.5 4.2 3.9 6 1 9.8 7 9.8 9.8 0 5.2-21.7 34.6-38.5 52.5l-6.3 6.6-4.2-6.3c-14-20.3-28.3-31.1-45.5-50.7l-3.1-3.5 4.9-1.8c21.3-8 33.9-25.2 33.9-47.2 0-22.1-21-36.1-43-36.1-24.2 0-48 14-48 38.5 0 20.7 15.4 35 22.1 42.7l5.2 5.6-7 3.2c-33.6 15.4-58.8 39.5-58.8 76.6 0 31.2 30.5 48.3 61.3 48.3 32.5 0 48.3-22 70.3-45.8l2.1-2.1 4.6 7.3c17.8 28 27.7 40.6 53.9 40.6 19.3 0 42.7-16.1 42.7-19.2 0-3.5-0.4-7.7-3.5-7.7-2.1 0-4.2 0.7-5.9 1.7-8.1 5.3-11.3 8.1-21 8.1-26.3 0-36.1-16.1-50.8-37.5l-6-8.4c0 0 58.1-61.9 62.7-65.8 5.6-4.9 14.7-10.1 25.6-10.8 3.1-0.4 8.7-3.9 8.7-6.7 0-1.4-3.2-3.1-4.2-3.1z"/>
		<path id="B" class="s0" aria-label="B"  d="m253.4 386.8q-8.4-0.1-8.4-3.9 0-2.8 3.2-3.9 3.5-1.4 9.4-2.4 13-2.5 21.3-8.1 8.5-5.6 12.3-18.1l47.9-157.5q3.9-13 0.8-17.9-2.8-5.3-14.8-7.4-5.2-1-7.3-2.1-2.1-1.4-2.1-3.8 0-2.4 3.5-3.2 3.9-1 8-1 6 0 9.9 0.4 4.1 0.3 7.6 1 3.9 0.4 8.8 0.4 5.2 0 11.9-0.8 6.7-1 13-1.7 6.6-1 10.8-1 23.8 0 37.8 6.3 14.4 6.3 20.6 16.8 6.3 10.1 6.3 22.3 0 12.7-5.9 22.4-6 9.5-15.4 16.5-9.5 7-20.3 11.2-10.9 4.2-21 5.6-2.8 0.3-2.8 1.7 0.4 1.1 1.7 1.8 20.3 7.7 31.9 20.3 11.9 12.6 11.9 37.1 0 15.1-7 27.6-7 12.6-20 22.1-12.6 9.1-29.7 14-17.2 4.9-37.1 4.9-14.7 0-24.5-1-9.8-1.5-19.6-1.5-8.4 0-14.4 0.7-5.9 0.8-12.6 1.4-6.2 0.7-15.7 0.7zm85.7-9.1q12 0 23.5-4.5 11.9-4.9 21.7-13.7 9.8-8.7 15.4-20.3 5.9-11.9 5.9-25.9 0-24.1-14.7-36.7-14.3-12.6-43-12.6-2.5 0-4.5 1.7-2.2 1.8-2.8 4.9l-22.5 76.7q-1.7 6.3-1.4 12.2 0.7 6 4.9 9.8 3.9 3.5 7.8 6 3.8 2.4 9.7 2.4zm12.6-122.5q8.1 0 15.8-1 8.1-1.4 16.4-3.2 17.5-7.3 29.5-19.5 12.2-12.3 12.2-30.2 0-14.3-11.2-24.5-11.2-10.5-31.9-10.5-6.6 0-9.8 1.4-2.8 1.1-3.5 4.3l-21.6 78q-1.5 5.2 4.1 5.2z"/>
	</g>
</svg>